<?xml version="1.0" encoding="UTF-8"?>
<svg id="Layer_2" data-name="Layer 2" xmlns="http://www.w3.org/2000/svg" viewBox="0 0 769.96 128.85">
  <defs>
    <style>
      .cls-1, .cls-2, .cls-3, .cls-4, .cls-5, .cls-6, .cls-7, .cls-8, .cls-9, .cls-10 {
        stroke-width: 0px;
      }

      .cls-1, .cls-2, .cls-5, .cls-9, .cls-10 {
        fill-rule: evenodd;
      }

      .cls-1, .cls-3 {
        fill: #faa61c;
      }

      .cls-2, .cls-4 {
        fill: #339cc9;
      }

      .cls-5, .cls-8 {
        fill: #6bba0d;
      }

      .cls-6, .cls-9 {
        fill: #1a2e45;
      }

      .cls-7, .cls-10 {
        fill: #c20000;
      }
    </style>
  </defs>
  <g id="Layer_1-2" data-name="Layer 1">
    <path class="cls-9" d="m8.17,48.41L26.66,16.39C38.37-3.89,30.28.37,72.89.37s34.52-4.26,46.22,16.02c13.56,23.48,27.3,47.02,40.65,70.56,13.26,23.35,8.87,20.36,24.13,20.36h24.76c15.66,0,10.5,3.26,24.75-21.44,14.26-24.69,14.03-18.58,6.19-32.16l-12.38-21.44c-7.84-13.57-2.42-10.72-30.94-10.72s-23.11-2.85-30.94,10.72l-14.41,24.87-12.18-21.16,11.3-19.59C161.76-3.89,153.68.37,196.28.37s34.52-4.26,46.23,16.02l18.49,32.03c11.7,20.27,12.05,11.15-9.24,48.04-21.31,36.89-13.57,32.03-36.99,32.03h-36.97c-23.42,0-15.68,4.86-36.98-32.03l-36.98-64.19c-7.84-13.57-2.43-10.72-30.94-10.72s-23.11-2.85-30.95,10.72l-12.37,21.44c-7.84,13.58-8.06,7.47,6.19,32.16,14.26,24.7,9.09,21.44,24.75,21.44h24.76c15.67,0,10.5,3.26,24.75-21.44l8.22-14.15,12.17,21.19-11.3,19.57c-11.71,20.28-3.62,16.01-46.22,16.01s-34.52,4.26-46.23-16.01l-18.49-32.03c-10.9-18.88-10.9-13.15,0-32.03h0Z"/>
    <polygon class="cls-3" points="82.36 52.02 82.36 35.03 63.41 35.03 63.41 52.02 72.89 61.5 82.36 52.02"/>
    <polygon class="cls-4" points="60.48 54.95 43.49 54.95 43.49 73.9 60.48 73.9 69.96 64.43 60.48 54.95"/>
    <polygon class="cls-8" points="63.41 76.83 63.41 93.83 82.36 93.83 82.36 76.83 72.89 67.36 63.41 76.83"/>
    <polygon class="cls-7" points="85.29 54.95 75.82 64.43 85.29 73.9 102.28 73.9 102.28 54.95 85.29 54.95"/>
    <path class="cls-5" d="m196.28,73.92c5.77,0,10.44,4.68,10.44,10.44s-4.67,10.44-10.44,10.44-10.44-4.67-10.44-10.44,4.67-10.44,10.44-10.44h0Z"/>
    <path class="cls-10" d="m205.77,64.43c0-5.77,4.67-10.45,10.44-10.45s10.44,4.68,10.44,10.45-4.67,10.44-10.44,10.44-10.44-4.67-10.44-10.44h0Z"/>
    <path class="cls-2" d="m165.91,64.43c0-5.77,4.67-10.45,10.44-10.45s10.44,4.68,10.44,10.45-4.67,10.44-10.44,10.44-10.44-4.67-10.44-10.44h0Z"/>
    <path class="cls-1" d="m196.28,34.05c5.77,0,10.44,4.68,10.44,10.45s-4.67,10.44-10.44,10.44-10.44-4.68-10.44-10.44,4.67-10.45,10.44-10.45h0Z"/>
    <g>
      <path class="cls-6" d="m361.95,72.01v41.62c-7.88,1.3-15.16,1.95-21.82,1.95-16.75,0-29.28-3.65-37.57-10.94-8.3-7.29-12.47-18.49-12.5-33.58,0-14.94,4.24-26.19,12.71-33.76,8.47-7.57,20.81-11.35,37.01-11.35,6.9,0,13.46.73,19.69,2.19v15.85c-6.15-1.42-12.14-2.13-17.97-2.13-7.25.04-13.17,1.04-17.74,3.02-4.57,1.97-7.97,5.11-10.2,9.43-2.23,4.32-3.34,9.98-3.34,17,0,9.85,2.33,17.06,6.98,21.61,4.65,4.55,11.8,6.83,21.46,6.83,1.22,0,3.02-.04,5.38-.12v-27.61h17.91Z"/>
      <path class="cls-6" d="m435.98,114.58l-7.21-23.35h-32.46l-7.21,23.35h-18.8l28.26-87.5h28.14l28.26,87.5h-18.98Zm-35-38.67h23.06l-11.53-37.31-11.53,37.31Z"/>
      <path class="cls-6" d="m535.3,27.08h23.47v87.5h-18.03v-61.9l-21.46,49.25h-15.9l-21.46-47.65v60.31h-18.03V27.08h23.47l24.3,55.1,23.65-55.1Z"/>
      <path class="cls-6" d="m574.74,114.58V27.08h19.27v87.5h-19.27Z"/>
      <path class="cls-6" d="m667.15,27.08h18.15v87.5h-19.39l-38.02-58.59v58.59h-18.15V27.08h19.39l38.02,58.59V27.08Z"/>
      <path class="cls-6" d="m769.96,72.01v41.62c-7.88,1.3-15.16,1.95-21.82,1.95-16.75,0-29.28-3.65-37.57-10.94-8.3-7.29-12.47-18.49-12.5-33.58,0-14.94,4.24-26.19,12.71-33.76,8.47-7.57,20.81-11.35,37.01-11.35,6.9,0,13.46.73,19.69,2.19v15.85c-6.15-1.42-12.14-2.13-17.97-2.13-7.25.04-13.17,1.04-17.74,3.02-4.57,1.97-7.97,5.11-10.2,9.43-2.23,4.32-3.34,9.98-3.34,17,0,9.85,2.33,17.06,6.98,21.61,4.65,4.55,11.8,6.83,21.46,6.83,1.22,0,3.02-.04,5.38-.12v-27.61h17.91Z"/>
    </g>
  </g>
</svg>