<?xml version="1.0" encoding="utf-8"?>
<!-- Generator: Adobe Illustrator 28.0.0, SVG Export Plug-In . SVG Version: 6.00 Build 0)  -->
<svg version="1.1" id="Layer_2_00000065772012020289689960000005504546494717737918_"
	 xmlns="http://www.w3.org/2000/svg" xmlns:xlink="http://www.w3.org/1999/xlink" x="0px" y="0px" viewBox="0 0 1109 128.9"
	 style="enable-background:new 0 0 1109 128.9;" xml:space="preserve">
<style type="text/css">
	.st0{fill-rule:evenodd;clip-rule:evenodd;fill:#FFFFFF;}
	.st1{fill:#FAA61C;}
	.st2{fill:#339CC9;}
	.st3{fill:#6BBA0D;}
	.st4{fill:#C20000;}
	.st5{fill-rule:evenodd;clip-rule:evenodd;fill:#6BBA0D;}
	.st6{fill-rule:evenodd;clip-rule:evenodd;fill:#C20000;}
	.st7{fill-rule:evenodd;clip-rule:evenodd;fill:#339CC9;}
	.st8{fill-rule:evenodd;clip-rule:evenodd;fill:#FAA61C;}
	.st9{fill:#FFFFFF;}
</style>
<path class="st0" d="M8.2,48.4l18.5-32c11.7-20.3,3.6-16,46.2-16s34.5-4.3,46.2,16c13.6,23.5,27.3,47,40.7,70.6
	c13.3,23.3,8.9,20.4,24.1,20.4h24.8c15.7,0,10.5,3.3,24.8-21.4c14.3-24.7,14-18.6,6.2-32.2l-12.4-21.4c-7.8-13.6-2.4-10.7-30.9-10.7
	s-23.1-2.9-30.9,10.7l-14.4,24.9L138.7,36L150,16.4c11.7-20.3,3.6-16,46.2-16s34.5-4.3,46.2,16l18.5,32c11.7,20.3,12,11.2-9.2,48
	c-21.3,36.9-13.6,32-37,32h-37c-23.4,0-15.7,4.9-37-32l-37-64.2c-7.8-13.6-2.4-10.7-30.9-10.7s-23.1-2.9-31,10.7L29.6,53.7
	c-7.8,13.6-8.1,7.5,6.2,32.2c14.3,24.7,9.1,21.4,24.8,21.4h24.8c15.7,0,10.5,3.3,24.8-21.4l8.2-14.2l12.2,21.2l-11.3,19.6
	c-11.7,20.3-3.6,16-46.2,16s-34.5,4.3-46.2-16l-18.5-32C-2.7,61.6-2.7,67.3,8.2,48.4L8.2,48.4L8.2,48.4z"/>
<polygon class="st1" points="82.4,52 82.4,35 63.4,35 63.4,52 72.9,61.5 "/>
<polygon class="st2" points="60.5,55 43.5,55 43.5,73.9 60.5,73.9 70,64.4 "/>
<polygon class="st3" points="63.4,76.8 63.4,93.8 82.4,93.8 82.4,76.8 72.9,67.4 "/>
<polygon class="st4" points="85.3,55 75.8,64.4 85.3,73.9 102.3,73.9 102.3,55 "/>
<path class="st5" d="M196.3,73.9c5.8,0,10.4,4.7,10.4,10.4s-4.7,10.4-10.4,10.4s-10.4-4.7-10.4-10.4S190.5,73.9,196.3,73.9
	L196.3,73.9z"/>
<path class="st6" d="M205.8,64.4c0-5.8,4.7-10.5,10.4-10.5s10.4,4.7,10.4,10.5s-4.7,10.4-10.4,10.4S205.8,70.2,205.8,64.4
	L205.8,64.4z"/>
<path class="st7" d="M165.9,64.4c0-5.8,4.7-10.5,10.4-10.5s10.4,4.7,10.4,10.5s-4.7,10.4-10.4,10.4S165.9,70.2,165.9,64.4
	L165.9,64.4z"/>
<path class="st8" d="M196.3,34c5.8,0,10.4,4.7,10.4,10.5s-4.7,10.4-10.4,10.4s-10.4-4.7-10.4-10.4S190.5,34,196.3,34L196.3,34z"/>
<g>
	<path class="st9" d="M298.8,113.4c-3,0-4.4-1.3-4.4-4.4V30.3c0-3,1.3-4.4,4.4-4.4h37.2c22.1,0,28.7,9.6,28.7,23.7v15.5
		c0,14.1-6.6,23.7-28.7,23.7h-14V109c0,3-1.3,4.4-4.4,4.4H298.8z M321.7,67h10.9c4.7,0,5.7-2.8,5.7-6v-6.4c0-3.2-1-6-5.7-6h-10.9V67
		z"/>
	<path class="st9" d="M375.3,109V94.5c0-3,1.3-4.4,4.4-4.4h12V49.4h-12c-3,0-4.4-1.3-4.4-4.4V30.3c0-3,1.3-4.4,4.4-4.4h51.7
		c3,0,4.4,1.3,4.4,4.4V45c0,3-1.3,4.4-4.4,4.4h-11.8v40.8h11.8c3,0,4.4,1.3,4.4,4.4V109c0,3-1.3,4.4-4.4,4.4h-51.7
		C376.6,113.4,375.3,112,375.3,109z"/>
	<path class="st9" d="M472.5,113.4H454c-3,0-4.4-1.3-4.4-4.4V96c0-7.5,1-10,4.6-14.9l9.8-13.2l-9.8-13.2c-3.8-5-4.6-7.4-4.6-14.9
		v-9.4c0-3,1.3-4.4,4.4-4.4h18.7c3,0,4.4,1.3,4.4,4.4v8.4c0,1.7,0,3.5,1.1,5.1l5.3,7.7c0.9,1.3,1.6,2.1,2.9,2.1h1.5
		c1.3,0,1.9-0.7,2.9-2.1l5.5-7.7c1.1-1.6,1.1-3.4,1.1-5.1v-8.4c0-3,1.3-4.4,4.4-4.4h18.5c3,0,4.4,1.3,4.4,4.4v9.4
		c0,7.5-1,10-4.6,14.9l-9.8,13.4l9.8,13.1c3.8,5,4.6,7.4,4.6,14.9v13c0,3-1.3,4.4-4.4,4.4h-18.5c-3,0-4.4-1.3-4.4-4.4V97
		c0-1.7,0.1-3.4-1.1-5.1l-5.3-7.7c-1-1.5-1.6-2.1-2.9-2.1h-1.7c-1.3,0-1.9,0.6-2.9,2.1l-5.5,7.7c-1.2,1.7-1.1,3.4-1.1,5.1v12
		C476.8,112,475.5,113.4,472.5,113.4z"/>
	<path class="st9" d="M544.6,113.4c-3,0-4.4-1.3-4.4-4.4V30.3c0-3,1.3-4.4,4.4-4.4H601c3,0,4.4,1.3,4.4,4.4v14.2
		c0,3-1.3,4.4-4.4,4.4h-33.5v9.4h23.7c3,0,4.4,1.3,4.4,4.4v13c0,3-1.3,4.4-4.4,4.4h-23.7v10.4H601c3,0,4.4,1.3,4.4,4.4V109
		c0,3-1.3,4.4-4.4,4.4H544.6z"/>
	<path class="st9" d="M624.1,113.4c-3,0-4.4-1.3-4.4-4.4V30.3c0-3,1.3-4.4,4.4-4.4h18.8c3,0,4.4,1.3,4.4,4.4v60.1h16.6V70.7
		c0-3,1.3-4.4,4.4-4.4h17.6c3,0,4.4,1.3,4.4,4.4V109c0,3-1.3,4.4-4.4,4.4H624.1z"/>
	<path class="st9" d="M708.5,113.4c-3,0-4.4-1.3-4.4-4.4V30.3c0-3,1.3-4.4,4.4-4.4h37.2c22.1,0,28.7,9.6,28.7,23.7v15.5
		c0,14.1-6.6,23.7-28.7,23.7h-14V109c0,3-1.3,4.4-4.4,4.4H708.5z M731.4,67h10.9c4.7,0,5.7-2.8,5.7-6v-6.4c0-3.2-1-6-5.7-6h-10.9V67
		z"/>
	<path class="st9" d="M823.9,115.2c-30.1,0-37.5-10-37.5-24.8V30.3c0-3,1.3-4.4,4.4-4.4h19.1c3,0,4.4,1.3,4.4,4.4v55.4
		c0,3.3,1.5,5.7,10,5.7c8.6,0,10.1-2.4,10.1-5.7V30.3c0-3,1.2-4.4,4.4-4.4H857c3,0,4.4,1.3,4.4,4.4v60.1
		C861.4,105.2,854,115.2,823.9,115.2z"/>
	<path class="st9" d="M881.9,113.4c-3,0-4.4-1.3-4.4-4.4V30.3c0-3,1.3-4.4,4.4-4.4h18.8c3,0,4.4,1.3,4.4,4.4v60.1h16.6V70.7
		c0-3,1.3-4.4,4.4-4.4h17.6c3,0,4.4,1.3,4.4,4.4V109c0,3-1.3,4.4-4.4,4.4H881.9z"/>
	<path class="st9" d="M964.2,113.4c-3,0-4.4-1.3-4.4-4.4V94.8c0-3,1.3-4.4,4.4-4.4h32.7c2.1,0,3.2-1.6,3.2-3.5
		c0-2.8-1.1-3.9-3.2-4.1l-18.2-2.6c-11.4-1.7-18.8-6.6-18.8-20.2V47.3c0-13.8,9.4-21.4,25.1-21.4h34c3,0,4.4,1.3,4.4,4.4v14.5
		c0,3-1.3,4.4-4.4,4.4h-28.3c-2.1,0-3.3,1.5-3.3,3.6s1.2,3.6,3.3,3.9l18.1,2.4c11.4,1.7,19,6.6,19,20.2V92
		c0,13.8-9.5,21.4-25.1,21.4H964.2z"/>
	<path class="st9" d="M1045.3,113.4c-3,0-4.4-1.3-4.4-4.4V30.3c0-3,1.3-4.4,4.4-4.4h56.4c3,0,4.4,1.3,4.4,4.4v14.2
		c0,3-1.3,4.4-4.4,4.4h-33.5v9.4h23.7c3,0,4.4,1.3,4.4,4.4v13c0,3-1.3,4.4-4.4,4.4h-23.7v10.4h33.5c3,0,4.4,1.3,4.4,4.4V109
		c0,3-1.3,4.4-4.4,4.4H1045.3z"/>
</g>
</svg>
